<?xml version="1.0" standalone="no"?>
<!DOCTYPE svg PUBLIC "-//W3C//DTD SVG 20010904//EN"
 "http://www.w3.org/TR/2001/REC-SVG-20010904/DTD/svg10.dtd">
<svg version="1.0" xmlns="http://www.w3.org/2000/svg"
 width="8334.000000pt" height="2084.000000pt" viewBox="0 0 8334.000000 2084.000000"
 preserveAspectRatio="xMidYMid meet">
<metadata>
Created by potrace 1.16, written by Peter Selinger 2001-2019
</metadata>
<g transform="translate(0.000000,2084.000000) scale(0.100000,-0.100000)"
fill="#000000" stroke="none">
<path d="M67115 17284 c-268 -60 -495 -252 -576 -488 -36 -103 -49 -187 -49
-306 0 -233 80 -429 241 -589 158 -158 332 -231 551 -231 148 0 241 21 367 82
92 44 116 61 201 147 143 142 211 273 241 462 15 97 6 273 -20 372 -65 250
-266 451 -536 537 -93 30 -315 37 -420 14z"/>
<path d="M43402 17050 c-188 -50 -314 -171 -378 -360 -18 -53 -19 -188 -22
-4195 -3 -4191 -1 -4405 34 -4656 130 -944 645 -1642 1403 -1904 255 -88 677
-129 961 -95 213 26 380 116 475 255 54 80 76 151 82 265 9 171 -45 334 -144
434 -60 61 -105 89 -185 117 -58 20 -89 23 -383 29 -296 7 -325 9 -385 30
-177 61 -319 175 -438 353 -119 175 -189 359 -239 627 -17 90 -18 328 -23
4390 -5 3879 -7 4300 -21 4345 -41 128 -138 254 -239 309 -99 54 -156 68 -295
72 -107 3 -143 1 -203 -16z"/>
<path d="M5475 16310 c-160 -32 -299 -137 -370 -279 -63 -124 -59 -46 -62
-1328 l-4 -1173 -532 0 c-578 0 -590 -1 -707 -57 -72 -35 -179 -142 -212 -213
-54 -115 -62 -277 -19 -390 56 -148 209 -267 385 -301 27 -5 282 -9 567 -9
l518 0 4 -2052 c4 -2250 0 -2122 63 -2427 192 -933 869 -1696 1765 -1989 337
-111 569 -142 1057 -142 286 0 327 2 398 20 111 28 198 75 276 149 117 110
158 209 158 386 0 169 -42 283 -143 391 -64 69 -113 102 -200 137 -48 19 -80
21 -422 28 -398 8 -495 18 -690 74 -120 34 -350 150 -455 229 -47 35 -133 113
-191 173 -256 265 -398 583 -439 982 -6 68 -10 772 -10 2072 l0 1969 883 0
c727 0 894 3 950 15 150 31 286 138 350 272 31 66 32 72 32 198 0 129 0 131
-36 206 -44 91 -119 170 -207 217 -118 63 -97 62 -1079 62 l-893 0 0 1148 c0
1271 2 1223 -66 1352 -42 80 -140 179 -221 223 -82 44 -191 67 -307 66 -56 -1
-119 -5 -141 -9z"/>
<path d="M14835 14840 c-22 -5 -65 -18 -96 -29 -169 -64 -308 -232 -339 -411
-8 -46 -10 -424 -8 -1275 l3 -1210 26 -67 c70 -179 212 -306 389 -348 81 -20
212 -16 290 9 191 60 335 216 375 408 12 57 15 260 15 1248 0 1298 2 1256 -62
1385 -38 78 -148 192 -225 233 -104 55 -257 79 -368 57z"/>
<path d="M75030 14190 c-994 -77 -1851 -452 -2519 -1104 -693 -677 -1085
-1511 -1198 -2546 -25 -233 -25 -777 0 -1010 94 -861 389 -1584 905 -2220 113
-139 389 -414 530 -528 545 -442 1166 -722 1855 -836 278 -47 440 -59 762 -60
477 -1 846 48 1248 165 1222 353 2217 1319 2627 2546 234 701 284 1497 144
2283 -224 1255 -979 2299 -2079 2876 -422 221 -899 361 -1430 420 -166 18
-678 27 -845 14z m530 -1050 c441 -27 802 -121 1165 -304 280 -142 498 -299
721 -521 671 -667 982 -1632 868 -2700 -58 -549 -254 -1069 -563 -1495 -398
-550 -967 -933 -1623 -1094 -272 -67 -394 -80 -743 -81 -325 0 -387 5 -628 51
-256 50 -496 132 -734 253 -570 289 -1006 733 -1293 1316 -132 268 -201 472
-260 765 -50 249 -64 405 -64 705 0 300 14 456 64 705 122 610 400 1138 820
1560 158 159 254 238 445 365 327 218 679 360 1065 429 172 31 320 46 545 54
28 1 124 -3 215 -8z"/>
<path d="M67240 14124 c-267 -29 -432 -163 -497 -404 -17 -62 -18 -258 -18
-3680 0 -3467 1 -3618 18 -3679 57 -201 198 -341 388 -386 83 -19 258 -19 333
0 192 50 329 190 381 390 13 53 15 453 15 3675 0 3152 -2 3623 -15 3678 -44
187 -191 341 -370 385 -66 17 -180 27 -235 21z"/>
<path d="M60720 13780 c-261 -27 -555 -92 -785 -175 -294 -105 -659 -311 -920
-521 -128 -103 -349 -322 -450 -446 l-70 -86 -5 381 c-6 362 -7 385 -28 441
-61 164 -176 265 -354 313 -88 24 -299 23 -388 -1 -74 -20 -160 -63 -213 -107
-52 -43 -114 -142 -140 -223 l-22 -71 0 -3515 0 -3515 22 -71 c54 -170 181
-287 360 -331 93 -23 295 -22 382 1 177 48 291 149 353 312 l23 59 5 2330 c6
2567 2 2389 67 2640 181 698 792 1246 1621 1454 346 87 727 118 1127 92 99 -6
284 -18 412 -27 250 -16 333 -12 437 25 118 41 200 130 248 268 19 55 23 89
23 178 0 99 -3 116 -27 168 -38 80 -79 130 -152 181 -158 112 -384 188 -686
231 -133 19 -700 29 -840 15z"/>
<path d="M25335 13769 c-912 -58 -1734 -363 -2405 -895 -162 -128 -453 -417
-574 -569 -422 -532 -678 -1099 -790 -1755 -49 -284 -60 -422 -60 -775 -1
-395 17 -598 79 -915 151 -759 505 -1431 1035 -1960 471 -472 1065 -810 1731
-989 591 -158 1327 -193 1931 -91 952 161 1787 696 2300 1476 47 71 95 145
107 164 l22 35 -4 -495 c-5 -535 -10 -596 -67 -880 -118 -588 -378 -1089 -780
-1504 -596 -615 -1400 -913 -2341 -866 -639 31 -1135 166 -1624 439 -324 182
-579 385 -823 655 -76 84 -147 152 -181 174 -127 82 -327 121 -473 93 -161
-31 -319 -145 -385 -279 -37 -75 -38 -78 -38 -192 0 -108 2 -119 31 -180 58
-121 345 -441 574 -643 591 -519 1298 -857 2093 -1002 605 -110 1330 -114
1892 -10 372 68 733 189 1062 354 959 480 1681 1315 2013 2326 123 375 182
724 201 1184 14 354 6 3283 -10 3441 -79 785 -277 1368 -657 1935 -530 792
-1346 1355 -2309 1594 -471 117 -1023 163 -1550 130z m660 -1019 c711 -65
1287 -306 1778 -744 429 -383 749 -952 871 -1548 52 -255 60 -350 60 -693 1
-341 -8 -436 -59 -690 -147 -727 -566 -1362 -1170 -1774 -408 -278 -836 -433
-1385 -503 -142 -18 -668 -18 -815 0 -548 67 -996 230 -1410 513 -290 198
-547 457 -737 745 -278 419 -434 878 -479 1412 -15 180 -6 593 16 752 50 360
140 658 291 960 408 816 1164 1367 2099 1529 94 17 197 30 345 44 83 8 494 6
595 -3z"/>
<path d="M36015 13769 c-1243 -89 -2286 -606 -2986 -1479 -386 -483 -640
-1033 -763 -1650 -113 -572 -105 -1292 20 -1860 225 -1016 816 -1865 1674
-2402 591 -369 1220 -561 2000 -609 775 -47 1516 103 2105 428 548 302 963
701 1303 1254 l33 54 -5 -465 c-5 -483 -13 -608 -56 -850 -88 -490 -276 -923
-566 -1307 -401 -529 -946 -887 -1599 -1049 -614 -152 -1423 -107 -2060 114
-366 126 -732 333 -1037 584 -84 69 -210 194 -404 400 -57 62 -86 83 -155 116
-256 123 -535 84 -721 -102 -139 -139 -168 -348 -71 -516 81 -141 480 -560
704 -737 622 -493 1325 -793 2130 -907 308 -44 424 -51 824 -51 399 0 533 10
807 56 705 119 1307 388 1868 835 167 133 464 429 591 589 445 559 717 1158
833 1835 64 367 61 273 61 2215 0 1644 -1 1782 -18 1935 -93 838 -353 1489
-848 2119 -113 143 -405 434 -559 557 -630 501 -1375 795 -2230 879 -197 19
-692 27 -875 14z m815 -1033 c493 -68 907 -218 1280 -464 175 -115 268 -189
414 -331 480 -468 767 -1068 852 -1781 24 -199 24 -591 0 -790 -59 -501 -209
-922 -461 -1300 -119 -178 -185 -260 -330 -409 -156 -161 -277 -261 -455 -380
-389 -258 -811 -412 -1310 -476 -169 -22 -568 -31 -745 -16 -309 26 -625 93
-880 187 -282 104 -636 307 -855 492 -116 97 -304 289 -390 397 -163 205 -348
531 -435 768 -203 553 -248 1208 -125 1817 110 549 367 1039 750 1434 217 224
462 402 756 549 363 182 690 270 1189 321 100 10 635 -3 745 -18z"/>
<path d="M50770 13768 c-830 -57 -1545 -328 -2170 -822 -152 -120 -454 -421
-574 -571 -378 -474 -635 -1024 -761 -1628 -74 -353 -100 -660 -92 -1080 5
-305 19 -454 63 -707 136 -775 498 -1474 1049 -2025 427 -428 943 -745 1530
-940 735 -245 1596 -300 2339 -149 490 99 1059 309 1451 533 235 135 481 311
548 393 143 175 121 416 -55 599 -105 110 -228 159 -398 159 -160 0 -279 -42
-419 -148 -309 -236 -702 -413 -1156 -522 -281 -68 -499 -93 -800 -93 -495 0
-914 81 -1323 258 -229 99 -515 275 -702 433 -113 94 -293 275 -386 387 -169
204 -376 565 -469 819 -70 190 -139 480 -160 674 l-7 62 3074 0 c2634 0 3083
2 3141 15 212 45 359 200 388 410 12 91 -2 440 -26 653 -121 1032 -586 1919
-1312 2503 -594 477 -1275 731 -2123 789 -169 11 -472 11 -650 -2z m560 -998
c694 -49 1235 -284 1680 -730 427 -426 684 -977 775 -1662 l6 -48 -2745 0
c-1510 0 -2746 2 -2746 4 0 29 57 300 84 396 100 364 285 739 505 1020 337
432 808 752 1336 906 340 99 735 140 1105 114z"/>
<path d="M16460 13417 c-224 -76 -360 -264 -360 -497 0 -145 43 -250 148 -361
43 -46 85 -78 135 -104 335 -174 552 -324 766 -530 474 -456 774 -1059 860
-1736 90 -699 -34 -1401 -344 -1949 -206 -365 -498 -689 -835 -927 -407 -288
-855 -457 -1396 -530 -164 -21 -644 -25 -809 -5 -400 48 -704 136 -1041 302
-470 232 -850 565 -1140 1001 -249 376 -401 796 -460 1279 -23 185 -23 585 0
770 45 371 135 674 292 990 256 515 651 936 1139 1215 157 89 216 159 251 296
19 72 14 187 -11 297 -57 245 -296 419 -548 399 -96 -8 -161 -32 -303 -112
-744 -422 -1328 -1065 -1654 -1821 -150 -350 -245 -709 -297 -1124 -26 -210
-26 -843 0 -1045 121 -928 476 -1665 1101 -2290 599 -598 1350 -979 2217
-1124 717 -121 1501 -81 2163 110 704 203 1374 618 1846 1143 697 775 1033
1697 1007 2761 -9 348 -42 609 -117 922 -232 965 -808 1783 -1640 2328 -247
162 -510 302 -649 345 -90 28 -234 27 -321 -3z"/>
<path d="M62441 7460 c-284 -60 -548 -288 -642 -556 -69 -197 -66 -458 7 -640
101 -254 316 -449 575 -520 91 -26 357 -26 448 0 148 41 266 112 377 227 113
119 187 245 226 388 31 111 31 352 -1 466 -78 286 -306 525 -586 615 -56 18
-98 23 -215 26 -80 2 -165 -1 -189 -6z"/>
</g>
</svg>
